<?xml version="1.0" encoding="utf-8"?>
<!-- Generator: Adobe Illustrator 26.0.1, SVG Export Plug-In . SVG Version: 6.00 Build 0)  -->
<svg version="1.1" id="Layer_1" xmlns="http://www.w3.org/2000/svg" xmlns:xlink="http://www.w3.org/1999/xlink" x="0px" y="0px"
	 viewBox="0 0 573.29 327.89" style="enable-background:new 0 0 573.29 327.89;" xml:space="preserve">
<style type="text/css">
	.st0{fill:#079D57;}
	.st1{fill:#009FE3;}
</style>
<g>
	<path class="st0" d="M22.6,8.65c5.91,0,10.72,4.81,10.72,10.72c0,5.91-4.81,10.72-10.72,10.72c-5.91,0-10.72-4.81-10.72-10.72
		C11.88,13.46,16.69,8.65,22.6,8.65 M22.6,7.35c-6.64,0-12.02,5.38-12.02,12.02c0,6.64,5.38,12.02,12.02,12.02
		s12.02-5.38,12.02-12.02C34.62,12.73,29.24,7.35,22.6,7.35"/>
	<path class="st0" d="M22.6,12.72c3.66,0,6.64,2.98,6.64,6.65c0,3.66-2.98,6.64-6.64,6.64s-6.65-2.98-6.65-6.64
		C15.96,15.71,18.94,12.72,22.6,12.72 M22.6,11.42c-4.39,0-7.94,3.56-7.94,7.94c0,4.39,3.56,7.95,7.94,7.95s7.94-3.56,7.94-7.95
		C30.55,14.98,26.99,11.42,22.6,11.42"/>
	<path d="M562.43,41.91c-0.18-0.64-0.44-1.25-0.76-1.81c-0.32-0.56-0.72-1.08-1.18-1.54c-0.46-0.46-0.98-0.86-1.54-1.19
		c-0.56-0.33-1.17-0.59-1.81-0.77c-0.64-0.18-1.32-0.27-2.02-0.27c-0.7,0-1.38,0.09-2.02,0.27c-0.64,0.18-1.25,0.44-1.81,0.77
		c-0.56,0.33-1.08,0.73-1.54,1.19c-0.46,0.46-0.86,0.98-1.18,1.54c-0.33,0.56-0.58,1.17-0.76,1.81c-0.18,0.65-0.28,1.33-0.28,2.02
		c0,0.69,0.09,1.38,0.28,2.02c0.18,0.64,0.44,1.25,0.76,1.81c0.32,0.56,0.72,1.08,1.18,1.54c0.46,0.46,0.98,0.86,1.54,1.19
		c0.56,0.33,1.17,0.59,1.81,0.77c0.64,0.18,1.32,0.27,2.02,0.27c0.7,0,1.38-0.09,2.02-0.27c0.64-0.18,1.25-0.44,1.81-0.77
		c0.56-0.33,1.08-0.73,1.54-1.19c0.46-0.46,0.86-0.98,1.18-1.54c0.33-0.56,0.58-1.17,0.76-1.81c0.18-0.65,0.28-1.33,0.28-2.02
		C562.71,43.24,562.61,42.56,562.43,41.91 M561.21,46.52c-0.35,0.81-0.82,1.51-1.42,2.11c-0.59,0.6-1.3,1.08-2.1,1.42
		c-0.8,0.34-1.67,0.52-2.58,0.52c-0.91,0-1.78-0.17-2.57-0.52c-0.79-0.34-1.5-0.82-2.09-1.42c-0.59-0.59-1.07-1.3-1.41-2.11
		c-0.34-0.8-0.51-1.67-0.51-2.59c0-0.92,0.17-1.79,0.51-2.59c0.34-0.8,0.81-1.52,1.41-2.11c0.59-0.6,1.3-1.08,2.09-1.43
		c0.79-0.34,1.66-0.52,2.57-0.52c0.91,0,1.78,0.18,2.58,0.52c0.8,0.35,1.51,0.83,2.1,1.43c0.59,0.6,1.07,1.31,1.42,2.12
		c0.34,0.8,0.52,1.67,0.52,2.59C561.72,44.85,561.55,45.72,561.21,46.52"/>
	<path d="M556.13,44.57c-0.04-0.06-0.08-0.11-0.12-0.17c0.64-0.15,1.16-0.41,1.55-0.8c0.48-0.47,0.72-1.09,0.72-1.82
		c0-0.87-0.3-1.53-0.89-1.96c-0.57-0.42-1.41-0.63-2.49-0.63h-2.53c-0.11,0-0.2,0.09-0.2,0.2v9.07c0,0.11,0.09,0.2,0.2,0.2h0.87
		c0.11,0,0.2-0.09,0.2-0.2v-3.81h0.93c0.2,0,0.29,0.03,0.31,0.04c0.05,0.03,0.1,0.07,0.14,0.12l2.77,3.6
		c0.05,0.09,0.13,0.16,0.22,0.2c0.07,0.03,0.16,0.04,0.25,0.04h0.82c0.08,0,0.15-0.04,0.18-0.11c0.03-0.07,0.03-0.15-0.02-0.21
		L556.13,44.57z M554.76,43.6h-1.32v-3.33h1.46c0.76,0,1.31,0.13,1.64,0.39c0.32,0.25,0.48,0.65,0.48,1.22
		c0,0.56-0.17,0.98-0.54,1.27C556.12,43.45,555.54,43.6,554.76,43.6"/>
	<path class="st1" d="M397.99,187.6c-2.03-0.91-4.02-1.84-5.88-2.76c-8.63-4.24-16.43-9.89-23.18-16.8
		c-6.85-7.01-12.43-15.79-16.59-26.11c-1.46-3.63-2.66-7.58-3.61-11.78l-14.72,55.93c-1.21,4.8-2.42,9.92-3.59,15.37
		c-1.15,5.47-2.28,11.21-3.36,17.22c-1.25-6.15-2.67-11.91-4.33-17.32c-1.62-5.39-3.2-10.47-4.69-15.27l-27.93-90.72l-21.42-69.59
		c-1.91-6.19-7.63-10.42-14.1-10.42h-3.91h-3.54h-8.23h-12.27h-2.75h-4.38c-6.47,0-12.19,4.22-14.1,10.4l-18.38,59.49l-31.31,100.84
		c-1.52,5.06-3.07,10.43-4.71,16.09c-1.64,5.68-3.16,11.72-4.51,18.14c-0.7-6.27-1.72-12.3-3.07-18.04
		c-1.37-5.74-2.75-11.13-4.1-16.19L98.34,30.32c-1.23-4.51-3.87-8.12-7.89-10.86c-4.04-2.73-9.06-4.1-15.06-4.1h-38.8
		c0.37,1.27,0.57,2.62,0.57,4.01c0,7.92-6.36,14.37-14.24,14.54l38.24,123.8l45,145.87c1.91,6.19,7.63,10.41,14.1,10.41h16.38h6.16
		h3.56h14.72c6.46,0,12.18-4.21,14.09-10.38l1.88-6.06c0.09-0.14,0.19-0.26,0.28-0.4v-0.02l5.88-19.08l45.91-149.12
		c0.94-2.87,1.93-6.01,2.95-9.43c1.02-3.4,2.03-7.03,2.99-10.86c0.94,3.83,1.95,7.46,2.97,10.86c1.02,3.42,2.01,6.56,2.97,9.43
		l30.86,101.74l0,0.01l20.22,66.35l1.98,6.51c1.89,6.21,7.62,10.46,14.12,10.46h14.95h3.64h5.22h2.18h15.27
		c5.63,0,10.67-3.19,13.15-8.09c-1.09-0.67-2.18-1.36-3.13-1.99c0.04-0.04,0.09-0.08,0.13-0.12c-0.25-0.15-0.52-0.31-0.77-0.46
		c-2.32-1.38-4.55-2.82-6.69-4.32l-0.83-0.58l-0.66-0.47c-1.12-0.71-2.16-1.48-3.05-2.27c-5.16-4.49-8.12-10.98-8.12-17.81
		c0-2.69,0.44-5.3,1.31-7.78v-0.15l0.58-1.36c0.06-0.14,0.12-0.27,0.18-0.4l0.34-0.79l0.07-0.07c0.84-1.67,1.85-3.21,3.04-4.6
		l4.44-7.03l5.11-8.09l1.65-2.59c2.12-3.46,5.13-6.29,8.99-8.44c3.79-2.08,7.92-3.14,12.26-3.14c2.19,0,4.42,0.28,6.59,0.82
		c0.13,0.03,0.27,0.08,0.4,0.12l14.34-46.43C398.52,187.83,398.25,187.72,397.99,187.6"/>
	<path class="st0" d="M545.51,189.68c-3.83-8.81-8.85-16.29-15.06-22.44c-6.21-6.15-13.32-11.19-21.32-15.17
		c-7.99-3.96-16.15-7.4-24.49-10.35c-8.34-2.93-16.5-5.6-24.49-7.99c-7.99-2.38-15.1-5.02-21.31-7.89
		c-6.21-2.87-11.23-6.27-15.06-10.25c-0.7-0.72-1.33-1.5-1.93-2.3c-2.54-3.52-3.81-7.75-3.81-12.67c0-9.43,3.18-16.91,9.53-22.44
		c1.86-1.62,4-2.99,6.42-4.12v-0.02c5.88-2.77,13.4-4.16,22.59-4.16c7.52,0,14.2,1,20.08,2.97c5.88,1.99,11.11,4.2,15.68,6.66
		c4.57,2.46,8.67,4.69,12.3,6.66c3.63,1.99,7.01,2.97,10.15,2.97c3.54,0,6.46-0.82,8.71-2.46c2.24-1.63,4.37-4.06,6.41-7.3
		c0.03-0.05,0.06-0.11,0.09-0.16l8.67-16.19l3.49-6.54l0.67-1.24c0.07-0.15,0.14-0.3,0.21-0.45c0.59-1.42,0.92-2.99,0.92-4.62
		c0-3.93-1.89-7.41-4.8-9.62c-0.01-0.02-0.03-0.04-0.04-0.05l-0.02-0.02l-1.11-0.8c-1.68-1.23-3.4-2.4-5.21-3.5
		c-0.1-0.08-0.22-0.14-0.35-0.23c-1.11-0.7-2.23-1.37-3.4-2.05c-6.76-3.9-14.04-7.23-21.83-10.04c-7.79-2.79-16.03-4.92-24.7-6.35
		c-8.67-1.43-17.59-2.15-26.75-2.15c-1.23,0-2.46,0.02-3.67,0.04c-14.9,0.35-28.24,2.83-39.99,7.44
		c-12.71,5-23.43,11.66-32.18,19.98c-4.51,4.28-8.44,8.9-11.83,13.79v0.02c-3.18,4.61-5.86,9.51-8.05,14.68
		c-4.51,10.66-6.76,21.6-6.76,32.79c0,2.75,0.08,5.41,0.22,7.99c0.59,10.49,2.44,19.53,5.51,27.16c3.83,9.51,8.85,17.42,15.06,23.77
		c6.21,6.35,13.28,11.48,21.21,15.37c1.86,0.92,3.75,1.8,5.64,2.64c6.13,2.77,12.38,5.16,18.75,7.19c8.34,2.66,16.46,5.1,24.39,7.28
		c7.93,2.19,15,4.71,21.21,7.58c6.21,2.87,11.23,6.5,15.06,10.86c3.83,4.39,5.74,10.04,5.74,17.01c0,12.03-3.48,20.8-10.45,26.34
		c-6.97,5.53-16.75,8.3-29.31,8.3c-9.28,0-17.36-1.29-24.18-3.89c-6.83-2.58-12.87-5.45-18.14-8.61c-5.27-3.14-9.98-6-14.14-8.61
		c-2.52-1.56-5.02-2.66-7.52-3.28c-1.64-0.41-3.26-0.61-4.88-0.61c-3.14,0-6.09,0.76-8.81,2.25c-2.73,1.52-4.86,3.48-6.35,5.94
		l-1.68,2.64l-4.63,7.32l-7.99,12.72c-0.08,0.12-0.15,0.25-0.2,0.39c-0.74,1.86-1.14,3.88-1.14,6.01c0,4.94,2.19,9.39,5.66,12.4
		c0.68,0.59,1.43,1.15,2.21,1.64c0.02,0,0.02,0,0.04,0.02c0.57,0.41,1.17,0.82,1.74,1.23c1.99,1.39,4.06,2.73,6.19,4
		c0.61,0.37,1.23,0.74,1.87,1.11c0.1,0.06,0.21,0.12,0.31,0.16c7.3,4.26,15.04,7.95,23.24,11.13c9.02,3.48,18.34,6.19,27.98,8.1
		c9.63,1.93,19.1,2.87,28.39,2.87c16.95,0,32.08-2.56,45.4-7.69c13.32-5.12,24.53-12.15,33.61-21.11
		c9.08-8.94,16.03-19.43,20.8-31.46c4.78-12.01,7.17-24.92,7.17-38.74C551.25,209.13,549.34,198.49,545.51,189.68"/>
</g>
</svg>
