<?xml version="1.0" encoding="UTF-8"?><svg xmlns="http://www.w3.org/2000/svg" xmlns:xlink="http://www.w3.org/1999/xlink" viewBox="0 0 350 260"><defs><style>.ac{fill:#ffcc80;}.ad{fill:#fff;mix-blend-mode:overlay;opacity:.27;}.ae{fill:url(#l);}.af{fill:url(#y);}.af,.ag,.ah,.ai,.aj,.ak,.al,.am,.an,.ao{mix-blend-mode:color-dodge;}.ap{fill:url(#c);}.aq{isolation:isolate;}.ag{fill:url(#r);}.ah{fill:url(#u);}.ar{fill:url(#m);}.as{fill:url(#f);}.at{fill:url(#p);}.au{fill:url(#g);}.ai{fill:url(#a`);}.aj{fill:url(#t);}.ak{fill:url(#x);}.al{fill:url(#aa);}.av{fill:url(#i);}.aw{fill:url(#h);}.ax{fill:url(#d);}.ay{fill:url(#e);}.am{fill:url(#v);}.b`{fill:url(#n);}.an{fill:url(#w);}.ba{fill:url(#j);}.bb{fill:url(#o);}.bc{fill:url(#q);}.bd{fill:url(#k);}.ao{fill:url(#s);}</style><linearGradient id="c" x1="73.96" y1="93.4" x2="73.96" y2="205.26" gradientTransform="matrix(1, 0, 0, 1, 0, 0)" gradientUnits="userSpaceOnUse"><stop offset="0" stop-color="#b3e5fc"/><stop offset="1" stop-color="#29b6f6"/></linearGradient><linearGradient id="d" x1="276.38" y1="107.84" x2="276.38" y2="185.4" gradientTransform="matrix(1, 0, 0, 1, 0, 0)" gradientUnits="userSpaceOnUse"><stop offset="0" stop-color="#f0f4c3"/><stop offset="1" stop-color="#c0ca33"/></linearGradient><linearGradient id="e" x1="195.84" y1="193.55" x2="154.61" y2="71.92" gradientTransform="matrix(1, 0, 0, 1, 0, 0)" gradientUnits="userSpaceOnUse"><stop offset="0" stop-color="#dd427e"/><stop offset="1" stop-color="#ffa726"/></linearGradient><linearGradient id="f" x1="198.99" y1="192.49" x2="157.76" y2="70.85" xlink:href="#e"/><linearGradient id="g" x1="222.1" y1="195.72" x2="227.77" y2="195.72" xlink:href="#c"/><linearGradient id="h" x1="78.16" y1="83.09" x2="82.41" y2="83.09" xlink:href="#c"/><linearGradient id="i" x1="324.76" y1="143.85" x2="327.42" y2="143.85" xlink:href="#c"/><linearGradient id="j" x1="13.34" y1="128.8" x2="16" y2="128.8" xlink:href="#c"/><linearGradient id="k" x1="179.69" y1="68.36" x2="182.35" y2="68.36" xlink:href="#c"/><linearGradient id="l" x1="247.07" y1="72.49" x2="249.73" y2="72.49" xlink:href="#c"/><linearGradient id="m" x1="119.05" y1="70.98" x2="124.72" y2="70.98" xlink:href="#e"/><linearGradient id="n" x1="73.02" y1="196.24" x2="75.86" y2="196.24" xlink:href="#e"/><linearGradient id="o" x1="153.13" y1="198.17" x2="155.96" y2="198.17" xlink:href="#e"/><linearGradient id="p" x1="274.83" y1="198.17" x2="277.66" y2="198.17" xlink:href="#e"/><linearGradient id="q" x1="302.67" y1="74.46" x2="305.51" y2="74.46" xlink:href="#e"/><radialGradient id="r" cx="250.46" cy="232.63" fx="250.46" fy="232.63" r="23.72" gradientTransform="translate(0 .04)" gradientUnits="userSpaceOnUse"><stop offset="0" stop-color="#e48965"/><stop offset=".03" stop-color="#cb7a59"/><stop offset=".07" stop-color="#a06047"/><stop offset=".13" stop-color="#7a4936"/><stop offset=".19" stop-color="#593527"/><stop offset=".25" stop-color="#3d241b"/><stop offset=".32" stop-color="#261711"/><stop offset=".41" stop-color="#150c09"/><stop offset=".51" stop-color="#080503"/><stop offset=".65" stop-color="#010100"/><stop offset="1" stop-color="#000"/></radialGradient><radialGradient id="s" cx="332.28" cy="131.56" fx="332.28" fy="131.56" r="12.72" xlink:href="#r"/><radialGradient id="t" cx="58.63" cy="176.94" fx="58.63" fy="176.94" r="12.72" xlink:href="#r"/><radialGradient id="u" cx="308.22" cy="198.6" fx="308.22" fy="198.6" r="12.72" xlink:href="#r"/><radialGradient id="v" cx="217.45" cy="37.71" fx="217.45" fy="37.71" r="12.72" xlink:href="#r"/><radialGradient id="w" cx="28.72" cy="183.13" fx="28.72" fy="183.13" r="23.72" xlink:href="#r"/><radialGradient id="x" cx="164.17" cy="27.39" fx="164.17" fy="27.39" xlink:href="#r"/><radialGradient id="y" cx="270.06" cy="70.71" fx="270.06" fy="70.71" r="18.56" xlink:href="#r"/><radialGradient id="a`" cx="127.73" cy="227.47" fx="127.73" fy="227.47" r="18.56" xlink:href="#r"/><radialGradient id="aa" cx="51.41" cy="59.36" fx="51.41" fy="59.36" r="18.56" xlink:href="#r"/></defs><g class="aq"><g id="a"/><g id="b"><g><g><ellipse class="ad" cx="172.08" cy="134.12" rx="80.96" ry="80.93"/><g><path class="ap" d="M61.96,159.1c-14.65,0-20.51-5.86-20.51-18.7v-39.53c0-2.82,1.24-4.05,4.06-4.05h17.47c2.82,0,4.06,1.24,4.06,4.05v30.86c0,2.36,1.35,3.83,3.49,3.83h10.48v-34.69c0-2.82,1.24-4.05,4.06-4.05h17.35c2.82,0,4.06,1.24,4.06,4.05v72.98c0,2.82-1.24,4.06-4.06,4.06h-17.35c-2.82,0-4.06-1.24-4.06-4.06v-14.75h-19.04Z"/><path class="ax" d="M264.38,159.1c-14.65,0-20.51-5.86-20.51-18.7v-39.53c0-2.82,1.24-4.05,4.06-4.05h17.46c2.82,0,4.06,1.24,4.06,4.05v30.86c0,2.36,1.35,3.83,3.49,3.83h10.48v-34.69c0-2.82,1.24-4.05,4.06-4.05h17.35c2.82,0,4.06,1.24,4.06,4.05v72.98c0,2.82-1.24,4.06-4.06,4.06h-17.35c-2.82,0-4.06-1.24-4.06-4.06v-14.75h-19.04Z"/></g><g><g><path class="ay" d="M249.88,49.99c-1.52-1.37-20.06,16.49-45.66,43.55-8.65-6.55-19.42-10.45-31.11-10.45-28.48,0-51.57,23.08-51.57,51.55,0,13.6,5.28,25.95,13.89,35.16-22.19,25.85-36.4,44.06-34.96,45.36,2.11,1.91,37.27-33.52,78.53-79.13,41.26-45.61,72.99-84.13,70.88-86.04Z"/><path class="as" d="M182.74,139.41c-13.04,14.41-25.55,27.73-36.66,39.12,7.86,4.85,17.12,7.65,27.04,7.65,28.48,0,51.57-23.08,51.57-51.55,0-11.69-3.9-22.47-10.47-31.12-9.36,11.05-20.01,23.23-31.48,35.9Z"/></g><path class="ac" d="M178.12,94.25c1.52,4.09-2.89,9.49-9.83,12.06-6.94,2.57-13.8,1.33-15.32-2.76-1.52-4.09,2.89-9.49,9.83-12.06,6.94-2.57,13.8-1.33,15.32,2.76Z"/><circle class="ac" cx="142.86" cy="110.24" r="4.12"/><circle class="ac" cx="214.36" cy="122.27" r="2.06"/></g></g><circle class="au" cx="224.93" cy="195.72" r="2.84"/><circle class="aw" cx="80.29" cy="83.09" r="2.13"/><path class="av" d="M327.42,143.85c0,.73-.6,1.33-1.33,1.33s-1.33-.6-1.33-1.33,.6-1.33,1.33-1.33,1.33,.6,1.33,1.33Z"/><path class="ba" d="M16,128.8c0,.73-.6,1.33-1.33,1.33s-1.33-.59-1.33-1.33,.6-1.33,1.33-1.33,1.33,.59,1.33,1.33Z"/><path class="bd" d="M182.35,68.36c0,.73-.6,1.33-1.33,1.33s-1.33-.59-1.33-1.33,.6-1.33,1.33-1.33,1.33,.59,1.33,1.33Z"/><path class="ae" d="M249.73,72.49c0,.73-.6,1.33-1.33,1.33s-1.33-.59-1.33-1.33,.6-1.33,1.33-1.33,1.33,.59,1.33,1.33Z"/><circle class="ar" cx="121.89" cy="70.98" r="2.84"/><circle class="b`" cx="74.44" cy="196.24" r="1.42"/><circle class="bb" cx="154.54" cy="198.17" r="1.42"/><circle class="at" cx="276.24" cy="198.17" r="1.42"/><circle class="bc" cx="304.09" cy="74.46" r="1.42"/><ellipse class="ag" cx="250.46" cy="232.58" rx="23.72" ry="23.71"/><ellipse class="ao" cx="332.28" cy="131.55" rx="12.72" ry="12.71"/><ellipse class="aj" cx="58.63" cy="176.91" rx="12.72" ry="12.71"/><ellipse class="ah" cx="308.22" cy="198.56" rx="12.72" ry="12.71"/><ellipse class="am" cx="217.45" cy="37.73" rx="12.72" ry="12.71"/><ellipse class="an" cx="28.72" cy="183.09" rx="23.72" ry="23.71"/><ellipse class="ak" cx="164.17" cy="27.42" rx="23.72" ry="23.71"/><ellipse class="af" cx="270.06" cy="70.72" rx="18.56" ry="18.55"/><ellipse class="ai" cx="127.73" cy="227.42" rx="18.56" ry="18.55"/><ellipse class="al" cx="51.41" cy="59.38" rx="18.56" ry="18.55"/></g></g><g id="ab"/></g></svg>