<svg width="40" height="40" viewBox="0 0 40 40" fill="none" xmlns="http://www.w3.org/2000/svg">
<path d="M37.3858 26.8621C37.0619 26.8621 36.7995 27.1246 36.7995 27.4484V34.1962C36.7995 34.8327 36.2816 35.3505 35.6452 35.3505H18.7564V33.6267C18.7564 33.4507 18.722 33.2259 18.604 32.9789C19.3302 32.7127 19.9293 32.3873 20.3425 32.0041H21.5246C22.4655 32.0041 23.231 31.2385 23.231 30.2976C23.231 29.3567 22.4655 28.5912 21.5246 28.5912H20.9668V27.4624C20.9668 27.4493 20.9662 27.436 20.9658 27.4227H21.5246C22.4655 27.4227 23.231 26.6571 23.231 25.7162C23.231 24.7753 22.4655 24.0098 21.5246 24.0098H20.0728C19.5424 24.0098 19.0678 24.2531 18.7546 24.6339C18.7554 24.6133 18.7565 24.5928 18.7565 24.5721V22.2195C19.0697 22.5988 19.5435 22.841 20.0727 22.841H21.5245C22.4654 22.841 23.2309 22.0756 23.2309 21.1346C23.2309 20.1937 22.4654 19.4282 21.5245 19.4282H20.9667V17.1394H21.5245C22.4654 17.1394 23.2309 16.374 23.2309 15.433C23.2309 14.4921 22.4654 13.7266 21.5245 13.7266H20.0726C19.6082 13.7266 19.1679 13.9186 18.8502 14.244C17.2395 13.5962 14.9132 13.264 12.6024 13.264C11.8686 13.264 11.1333 13.2976 10.4197 13.364V2.32695C10.4197 1.69047 10.9375 1.17265 11.574 1.17265H16.3187C16.6425 1.17265 16.905 0.910155 16.905 0.586327C16.905 0.2625 16.6425 0 16.3187 0H11.574C10.2908 0 9.24701 1.0439 9.24701 2.32695V13.5067C6.44827 13.9302 4.23819 14.904 4.23819 16.392V19.1114C2.41702 19.8154 2.02796 20.6846 2.02796 21.298V24.5721C2.02796 25.5409 2.96483 26.2917 4.39077 26.8146C4.27288 27.0614 4.23827 27.286 4.23827 27.4624V30.7365C4.23827 30.9642 4.29022 31.1799 4.38796 31.3834C2.45804 32.0861 2.02796 32.9752 2.02796 33.6268V36.9009C2.02796 38.8518 5.70522 39.7789 8.8542 39.9801C8.86693 39.9809 8.87951 39.9813 8.89209 39.9813C9.19881 39.9813 9.45685 39.7427 9.4767 39.4323C9.49732 39.1091 9.25209 38.8304 8.92889 38.8098C4.93038 38.5544 3.20062 37.422 3.20062 36.9009V35.306C4.73975 36.2618 7.57748 36.7546 10.3922 36.7546C13.2068 36.7546 16.0446 36.2618 17.5837 35.306V36.9009C17.5837 37.4853 15.5622 38.6292 11.5346 38.8281C11.2111 38.844 10.9619 39.1191 10.9779 39.4426C10.9933 39.7563 11.2525 40 11.5629 40C11.5727 40 11.5825 39.9998 11.5923 39.9993C15.1582 39.8233 18.7564 38.797 18.7564 36.9009V36.5233H35.6452C36.9284 36.5233 37.9722 35.4794 37.9722 34.1963V27.4485C37.9722 27.1246 37.7096 26.8621 37.3858 26.8621ZM20.9667 30.7365V29.764H21.5245V29.7639C21.8188 29.7639 22.0582 30.0033 22.0582 30.2976C22.0582 30.5919 21.8187 30.8313 21.5245 30.8313H20.9636C20.9657 30.8 20.9667 30.7683 20.9667 30.7365ZM20.0727 25.1825H21.5245C21.8188 25.1825 22.0582 25.4218 22.0582 25.7161C22.0582 26.0104 21.8187 26.2499 21.5245 26.2499H20.4061C20.1971 26.0422 19.9168 25.8343 19.546 25.6338C19.5857 25.3786 19.8064 25.1825 20.0727 25.1825ZM19.794 27.4624C19.794 27.6954 19.3993 28.2188 17.9202 28.7021C16.5083 29.1634 14.6198 29.4174 12.6025 29.4174C7.9492 29.4174 5.41092 28.1259 5.41092 27.4624C5.41077 27.3608 5.47616 27.2543 5.55085 27.1653C6.97803 27.5194 8.68928 27.6999 10.3921 27.6999C13.2943 27.6999 16.2211 27.1759 17.7235 26.1607C19.3563 26.6553 19.794 27.2244 19.794 27.4624ZM21.5246 20.6011C21.8188 20.601 22.0582 20.8404 22.0582 21.1347C22.0582 21.429 21.8187 21.6684 21.5245 21.6684H20.0727C19.8918 21.6684 19.7321 21.5778 19.6355 21.4399C20.0689 21.1932 20.4126 20.9133 20.6423 20.6011H21.5246ZM20.0727 14.8996H21.5245C21.8188 14.8996 22.0582 15.139 22.0582 15.4333C22.0582 15.7275 21.8187 15.9669 21.5245 15.9669H20.903C20.7821 15.5681 20.4921 15.212 20.0704 14.8997C20.0713 14.8997 20.0719 14.8996 20.0727 14.8996ZM7.28467 15.1523C8.69654 14.691 10.585 14.4369 12.6024 14.4369C17.2557 14.4369 19.7939 15.7285 19.7939 16.3921C19.7939 16.6251 19.3993 17.1485 17.9201 17.6318C16.5082 18.0931 14.6197 18.3472 12.6024 18.3472C7.94912 18.3472 5.41085 17.0556 5.41085 16.3921C5.41077 16.159 5.80553 15.6356 7.28467 15.1523ZM5.41069 18.0713C6.94991 19.0271 9.78763 19.5199 12.6023 19.5199C15.417 19.5199 18.2547 19.027 19.7939 18.0713V19.6661C19.7939 19.8494 19.5494 20.2122 18.7257 20.5939C18.7235 20.5948 18.7214 20.5958 18.7193 20.5968C18.4969 20.6995 18.233 20.8036 17.92 20.9058C16.5081 21.3671 14.6197 21.6212 12.6022 21.6212C7.94905 21.6212 5.41069 20.3296 5.41069 19.6661V18.0713ZM4.38999 20.3171C5.17764 21.946 8.91006 22.7939 12.6024 22.7939C13.56 22.7939 14.5203 22.7367 15.4313 22.6238C14.0535 23.0296 12.2655 23.2531 10.3922 23.2531C5.73897 23.2531 3.20069 21.9615 3.20069 21.2979C3.20062 21.0555 3.57257 20.6761 4.38999 20.3171ZM3.20062 24.572V22.9771C4.73975 23.9329 7.57748 24.4257 10.3922 24.4257C13.0465 24.4257 15.9931 23.9656 17.5837 22.9789V24.572C17.5837 24.805 17.189 25.3284 15.7099 25.8117C14.298 26.273 12.4096 26.5271 10.3922 26.5271C5.73889 26.5271 3.20062 25.2357 3.20062 24.572ZM15.7099 34.8665C14.298 35.3278 12.4096 35.5819 10.3922 35.5819C5.73889 35.5819 3.20062 34.2903 3.20062 33.6267C3.20062 33.298 3.84983 32.7567 5.27116 32.3252C6.77358 33.3402 9.70029 33.8642 12.6024 33.8642C14.3054 33.8642 16.0166 33.6838 17.4439 33.3296C17.518 33.418 17.5837 33.5249 17.5837 33.6267C17.5837 33.8598 17.189 34.3831 15.7099 34.8665ZM17.92 31.9761C16.5082 32.4374 14.6197 32.6915 12.6023 32.6915C7.94912 32.6915 5.41077 31.3999 5.41077 30.7364V29.1416C6.94991 30.0974 9.78763 30.5902 12.6023 30.5902C15.417 30.5902 18.2547 30.0974 19.7939 29.1416V30.7364C19.7939 30.9695 19.3993 31.4928 17.92 31.9761Z" fill="url(#paint0_linear_10_60)"/>
<path d="M35.6452 0H18.9907C18.6668 0 18.4043 0.2625 18.4043 0.586327C18.4043 0.910155 18.6668 1.17265 18.9907 1.17265H35.6452C36.2817 1.17265 36.7995 1.69047 36.7995 2.32695V24.7764C36.7995 25.1002 37.062 25.3627 37.3859 25.3627C37.7098 25.3627 37.9722 25.1002 37.9722 24.7764V2.32695C37.9722 1.0439 36.9283 0 35.6452 0Z" fill="url(#paint1_linear_10_60)"/>
<path d="M34.5964 4.79043C34.5964 4.4666 34.334 4.2041 34.0101 4.2041H13.2091C12.8853 4.2041 12.6228 4.4666 12.6228 4.79043V10.5538C12.6228 10.8776 12.8853 11.1401 13.2091 11.1401H34.0102C34.3341 11.1401 34.5965 10.8776 34.5965 10.5538L34.5964 4.79043ZM33.4238 9.96745H13.7954V5.37676H33.4238V9.96745Z" fill="url(#paint2_linear_10_60)"/>
<path d="M27.1465 13.7268H25.6947C24.7538 13.7268 23.9883 14.4923 23.9883 15.4332C23.9883 16.3741 24.7538 17.1396 25.6947 17.1396H27.1465C28.0874 17.1396 28.8529 16.3741 28.8529 15.4332C28.8529 14.4923 28.0874 13.7268 27.1465 13.7268ZM27.1465 15.9669H25.6947C25.4004 15.9669 25.161 15.7275 25.161 15.4332C25.161 15.1389 25.4005 14.8995 25.6947 14.8995H27.1465C27.4408 14.8995 27.6802 15.1389 27.6802 15.4332C27.6802 15.7275 27.4407 15.9669 27.1465 15.9669Z" fill="url(#paint3_linear_10_60)"/>
<path d="M32.7685 13.7268H31.3167C30.3757 13.7268 29.6103 14.4923 29.6103 15.4332C29.6103 16.3741 30.3757 17.1396 31.3167 17.1396H32.7685C33.7094 17.1396 34.4749 16.3741 34.4749 15.4332C34.4749 14.4923 33.7094 13.7268 32.7685 13.7268ZM32.7685 15.9669H31.3167C31.0224 15.9669 30.783 15.7275 30.783 15.4332C30.783 15.1389 31.0224 14.8995 31.3167 14.8995H32.7685C33.0628 14.8995 33.3021 15.1389 33.3021 15.4332C33.3021 15.7275 33.0628 15.9669 32.7685 15.9669Z" fill="url(#paint4_linear_10_60)"/>
<path d="M27.1465 19.4282H25.6947C24.7538 19.4282 23.9883 20.1937 23.9883 21.1346C23.9883 22.0756 24.7538 22.841 25.6947 22.841H27.1465C28.0874 22.841 28.8529 22.0756 28.8529 21.1346C28.8529 20.1937 28.0874 19.4282 27.1465 19.4282ZM27.1465 21.6684H25.6947C25.4004 21.6684 25.161 21.429 25.161 21.1347C25.161 20.8404 25.4005 20.601 25.6947 20.601H27.1465C27.4408 20.601 27.6802 20.8404 27.6802 21.1347C27.6801 21.429 27.4407 21.6684 27.1465 21.6684Z" fill="url(#paint5_linear_10_60)"/>
<path d="M32.7685 19.4282H31.3167C30.3757 19.4282 29.6103 20.1937 29.6103 21.1346C29.6103 22.0756 30.3757 22.841 31.3167 22.841H32.7685C33.7094 22.841 34.4749 22.0756 34.4749 21.1346C34.4749 20.1937 33.7094 19.4282 32.7685 19.4282ZM32.7685 21.6684H31.3167C31.0224 21.6684 30.783 21.429 30.783 21.1347C30.783 20.8404 31.0224 20.601 31.3167 20.601H32.7685C33.0628 20.601 33.3021 20.8404 33.3021 21.1347C33.3021 21.429 33.0628 21.6684 32.7685 21.6684Z" fill="url(#paint6_linear_10_60)"/>
<path d="M27.1465 24.0098H25.6947C24.7538 24.0098 23.9883 24.7752 23.9883 25.7162C23.9883 26.6571 24.7538 27.4226 25.6947 27.4226H27.1465C28.0874 27.4226 28.8529 26.6571 28.8529 25.7162C28.8529 24.7752 28.0874 24.0098 27.1465 24.0098ZM27.1465 26.2499H25.6947C25.4004 26.2499 25.161 26.0105 25.161 25.7162C25.161 25.4219 25.4005 25.1825 25.6947 25.1825H27.1465C27.4408 25.1825 27.6802 25.4219 27.6802 25.7162C27.6801 26.0105 27.4407 26.2499 27.1465 26.2499Z" fill="url(#paint7_linear_10_60)"/>
<path d="M32.7685 24.0098H31.3167C30.3757 24.0098 29.6103 24.7752 29.6103 25.7162C29.6103 26.6571 30.3757 27.4226 31.3167 27.4226H32.7685C33.7094 27.4226 34.4749 26.6571 34.4749 25.7162C34.4749 24.7752 33.7094 24.0098 32.7685 24.0098ZM32.7685 26.2499H31.3167C31.0224 26.2499 30.783 26.0105 30.783 25.7162C30.783 25.4219 31.0224 25.1825 31.3167 25.1825H32.7685C33.0628 25.1825 33.3021 25.4219 33.3021 25.7162C33.3021 26.0105 33.0628 26.2499 32.7685 26.2499Z" fill="url(#paint8_linear_10_60)"/>
<path d="M27.1465 28.5913H25.6947C24.7538 28.5913 23.9883 29.3568 23.9883 30.2977C23.9883 31.2386 24.7538 32.0042 25.6947 32.0042H27.1465C28.0874 32.0042 28.8529 31.2386 28.8529 30.2977C28.8528 29.3568 28.0874 28.5913 27.1465 28.5913ZM27.1465 30.8314H25.6947C25.4004 30.8314 25.161 30.5919 25.161 30.2976C25.161 30.0033 25.4005 29.764 25.6947 29.764H27.1465C27.4408 29.764 27.6802 30.0033 27.6802 30.2976C27.6801 30.5919 27.4407 30.8314 27.1465 30.8314Z" fill="url(#paint9_linear_10_60)"/>
<path d="M32.7685 28.5913H31.3167C30.3757 28.5913 29.6103 29.3568 29.6103 30.2977C29.6103 31.2386 30.3757 32.0042 31.3167 32.0042H32.7685C33.7094 32.0042 34.4749 31.2386 34.4749 30.2977C34.4749 29.3568 33.7094 28.5913 32.7685 28.5913ZM32.7685 30.8314H31.3167C31.0224 30.8314 30.783 30.5919 30.783 30.2976C30.783 30.0033 31.0224 29.764 31.3167 29.764H32.7685C33.0628 29.764 33.3021 30.0033 33.3021 30.2976C33.3021 30.5919 33.0628 30.8314 32.7685 30.8314Z" fill="url(#paint10_linear_10_60)"/>
<path d="M7.34819 11.5767H5.36569C5.04187 11.5767 4.77937 11.8392 4.77937 12.163C4.77937 12.4868 5.04187 12.7493 5.36569 12.7493H7.34819C7.67202 12.7493 7.93452 12.4868 7.93452 12.163C7.93452 11.8392 7.67202 11.5767 7.34819 11.5767Z" fill="url(#paint11_linear_10_60)"/>
<path d="M7.34819 9.75952H5.36569C5.04187 9.75952 4.77937 10.022 4.77937 10.3458C4.77937 10.6697 5.04187 10.9322 5.36569 10.9322H7.34819C7.67202 10.9322 7.93452 10.6697 7.93452 10.3458C7.93452 10.022 7.67202 9.75952 7.34819 9.75952Z" fill="url(#paint12_linear_10_60)"/>
<path d="M7.34428 7.7439C7.02046 7.7439 6.75796 8.0064 6.75796 8.33022C6.75796 8.65405 7.02046 8.91655 7.34428 8.91655H7.3521C7.67592 8.91655 7.93452 8.65405 7.93452 8.33022C7.93452 8.0064 7.66811 7.7439 7.34428 7.7439Z" fill="url(#paint13_linear_10_60)"/>
<defs>
<linearGradient id="paint0_linear_10_60" x1="2.02796" y1="19.6923" x2="37.9722" y2="19.6923" gradientUnits="userSpaceOnUse">
<stop stop-color="#7E90FE"/>
<stop offset="1" stop-color="#9873FF"/>
</linearGradient>
<linearGradient id="paint1_linear_10_60" x1="18.4043" y1="12.4862" x2="37.9722" y2="12.4862" gradientUnits="userSpaceOnUse">
<stop stop-color="#7E90FE"/>
<stop offset="1" stop-color="#9873FF"/>
</linearGradient>
<linearGradient id="paint2_linear_10_60" x1="12.6228" y1="7.61875" x2="34.5965" y2="7.61875" gradientUnits="userSpaceOnUse">
<stop stop-color="#7E90FE"/>
<stop offset="1" stop-color="#9873FF"/>
</linearGradient>
<linearGradient id="paint3_linear_10_60" x1="23.9883" y1="15.407" x2="28.8529" y2="15.407" gradientUnits="userSpaceOnUse">
<stop stop-color="#7E90FE"/>
<stop offset="1" stop-color="#9873FF"/>
</linearGradient>
<linearGradient id="paint4_linear_10_60" x1="29.6103" y1="15.407" x2="34.4749" y2="15.407" gradientUnits="userSpaceOnUse">
<stop stop-color="#7E90FE"/>
<stop offset="1" stop-color="#9873FF"/>
</linearGradient>
<linearGradient id="paint5_linear_10_60" x1="23.9883" y1="21.1084" x2="28.8529" y2="21.1084" gradientUnits="userSpaceOnUse">
<stop stop-color="#7E90FE"/>
<stop offset="1" stop-color="#9873FF"/>
</linearGradient>
<linearGradient id="paint6_linear_10_60" x1="29.6103" y1="21.1084" x2="34.4749" y2="21.1084" gradientUnits="userSpaceOnUse">
<stop stop-color="#7E90FE"/>
<stop offset="1" stop-color="#9873FF"/>
</linearGradient>
<linearGradient id="paint7_linear_10_60" x1="23.9883" y1="25.69" x2="28.8529" y2="25.69" gradientUnits="userSpaceOnUse">
<stop stop-color="#7E90FE"/>
<stop offset="1" stop-color="#9873FF"/>
</linearGradient>
<linearGradient id="paint8_linear_10_60" x1="29.6103" y1="25.69" x2="34.4749" y2="25.69" gradientUnits="userSpaceOnUse">
<stop stop-color="#7E90FE"/>
<stop offset="1" stop-color="#9873FF"/>
</linearGradient>
<linearGradient id="paint9_linear_10_60" x1="23.9883" y1="30.2715" x2="28.8529" y2="30.2715" gradientUnits="userSpaceOnUse">
<stop stop-color="#7E90FE"/>
<stop offset="1" stop-color="#9873FF"/>
</linearGradient>
<linearGradient id="paint10_linear_10_60" x1="29.6103" y1="30.2715" x2="34.4749" y2="30.2715" gradientUnits="userSpaceOnUse">
<stop stop-color="#7E90FE"/>
<stop offset="1" stop-color="#9873FF"/>
</linearGradient>
<linearGradient id="paint11_linear_10_60" x1="4.77937" y1="12.154" x2="7.93452" y2="12.154" gradientUnits="userSpaceOnUse">
<stop stop-color="#7E90FE"/>
<stop offset="1" stop-color="#9873FF"/>
</linearGradient>
<linearGradient id="paint12_linear_10_60" x1="4.77937" y1="10.3368" x2="7.93452" y2="10.3368" gradientUnits="userSpaceOnUse">
<stop stop-color="#7E90FE"/>
<stop offset="1" stop-color="#9873FF"/>
</linearGradient>
<linearGradient id="paint13_linear_10_60" x1="6.75796" y1="8.3212" x2="7.93452" y2="8.3212" gradientUnits="userSpaceOnUse">
<stop stop-color="#7E90FE"/>
<stop offset="1" stop-color="#9873FF"/>
</linearGradient>
</defs>
</svg>
