<svg width="40" height="40" viewBox="0 0 40 40" fill="none" xmlns="http://www.w3.org/2000/svg">
<g clip-path="url(#clip0_4_179)">
<path d="M39.4139 19.414H29.9797V18.0809H32.5251C32.8487 18.0809 33.111 17.8185 33.111 17.4949C33.111 17.1713 32.8487 16.909 32.5251 16.909H29.9797V15.5758H31.7469C32.4053 15.5758 33.0243 15.3195 33.4897 14.8539L37.3433 11.0003C37.5944 11.1254 37.8727 11.192 38.1615 11.192C38.6526 11.192 39.1142 11.0007 39.4615 10.6536C39.8088 10.3063 40 9.84465 40 9.35356C40 8.86246 39.8088 8.40083 39.4615 8.05356C39.1143 7.7063 38.6526 7.51505 38.1615 7.51505C37.6704 7.51505 37.2088 7.7063 36.8615 8.05348C36.5142 8.40075 36.323 8.86239 36.323 9.35348C36.323 9.64223 36.3896 9.92059 36.5146 10.1717L32.6611 14.0253C32.4169 14.2694 32.0922 14.4039 31.7468 14.4039H29.9797V13.1111C29.9797 11.4068 28.593 10.0202 26.8887 10.0202H25.5959V4.83311C26.3231 4.58787 26.8484 3.89983 26.8484 3.09093C26.8484 2.07718 26.0237 1.2525 25.01 1.2525C23.9963 1.2525 23.1716 2.07726 23.1716 3.09093C23.1716 3.89983 23.6969 4.58779 24.4241 4.83311V10.0201H23.0909V7.47474C23.0909 7.15114 22.8286 6.8888 22.505 6.8888C22.1814 6.8888 21.9191 7.15114 21.9191 7.47474V10.0201H20.5859V0.585935C20.5859 0.262343 20.3235 0 19.9999 0C19.6763 0 19.414 0.262343 19.414 0.585935V10.0201H18.0809V7.47474C18.0809 7.15114 17.8185 6.8888 17.4949 6.8888C17.1713 6.8888 16.909 7.15114 16.909 7.47474V10.0201H15.5759V8.25301C15.5759 7.59466 15.3195 6.97568 14.8539 6.51021L10.999 2.6553C11.3396 1.96773 11.2254 1.11039 10.6536 0.538514C9.93677 -0.178281 8.77044 -0.178202 8.05365 0.538514C7.33685 1.25531 7.33685 2.42163 8.05365 3.1385C8.41208 3.49686 8.88286 3.67608 9.35364 3.67608C9.63395 3.67608 9.9138 3.611 10.1704 3.48389L14.0253 7.33888C14.2696 7.58302 14.404 7.9077 14.404 8.25301V10.0201H13.1112C12.8499 10.0201 12.59 10.0529 12.3387 10.1175C12.0254 10.1982 11.8367 10.5176 11.9173 10.8311C11.9979 11.1445 12.3175 11.3332 12.6308 11.2525C12.7867 11.2124 12.9482 11.192 13.1111 11.192H26.8887C27.9469 11.192 28.8078 12.0529 28.8078 13.111V26.8887C28.8078 27.0515 28.7875 27.2129 28.7475 27.3686C28.6669 27.6821 28.8557 28.0015 29.169 28.082C29.2179 28.0946 29.267 28.1006 29.3154 28.1006C29.5764 28.1006 29.8144 27.9249 29.8824 27.6604C29.9469 27.4094 29.9797 27.1497 29.9797 26.8886V25.5958H35.1667C35.4119 26.323 36.0999 26.8483 36.9088 26.8483C37.9226 26.8483 38.7473 26.0236 38.7473 25.0099C38.7473 23.9962 37.9225 23.1715 36.9088 23.1715C36.0999 23.1715 35.412 23.6968 35.1667 24.424H29.9797V23.0908H32.525C32.8486 23.0908 33.111 22.8284 33.111 22.5048C33.111 22.1812 32.8486 21.9189 32.525 21.9189H29.9797V20.5859H39.4139C39.7375 20.5859 39.9999 20.3235 39.9999 19.9999C39.9999 19.6763 39.7375 19.414 39.4139 19.414ZM37.6901 8.88223C37.816 8.75629 37.9834 8.687 38.1614 8.687C38.3395 8.687 38.5068 8.75629 38.6327 8.88223C38.7587 9.00817 38.828 9.17551 38.828 9.35356C38.828 9.5316 38.7587 9.69895 38.6327 9.82488C38.5068 9.95082 38.3395 10.0201 38.1614 10.0201C37.9834 10.0201 37.816 9.95082 37.6901 9.82488C37.5642 9.69895 37.4949 9.5316 37.4949 9.35356C37.4949 9.17551 37.5642 9.00809 37.6901 8.88223ZM9.82489 2.30991C9.56505 2.56968 9.14216 2.56976 8.88216 2.30983C8.62224 2.04991 8.62224 1.62702 8.88216 1.36718C9.01216 1.23718 9.18278 1.17226 9.35356 1.17226C9.52427 1.17226 9.69497 1.23726 9.82489 1.36718C10.0848 1.6271 10.0848 2.04999 9.82489 2.30991ZM25.01 3.75749C24.6425 3.75749 24.3434 3.45842 24.3434 3.09093C24.3434 2.72343 24.6424 2.42437 25.01 2.42437C25.3776 2.42437 25.6765 2.72343 25.6765 3.09093C25.6765 3.45842 25.3775 3.75749 25.01 3.75749ZM36.9089 24.3434C37.2765 24.3434 37.5755 24.6425 37.5755 25.01C37.5755 25.3776 37.2764 25.6765 36.9089 25.6765C36.5414 25.6765 36.2424 25.3775 36.2424 25.01C36.2423 24.6424 36.5413 24.3434 36.9089 24.3434Z" fill="url(#paint0_linear_4_179)"/>
<path d="M31.9463 36.8615C31.3745 36.2897 30.5171 36.1755 29.8295 36.5161L25.9746 32.6611C25.7304 32.417 25.5959 32.0923 25.5959 31.747V29.9799H26.8887C27.15 29.9799 27.4099 29.947 27.6611 29.8824C27.9744 29.8018 28.1631 29.4824 28.0825 29.1689C28.0018 28.8556 27.6825 28.6669 27.369 28.7475C27.2132 28.7876 27.0516 28.8079 26.8887 28.8079H13.1111C12.0529 28.8079 11.1921 27.947 11.1921 26.8888V13.1112C11.1921 12.9484 11.2124 12.7868 11.2525 12.6311C11.3332 12.3177 11.1445 11.9983 10.8311 11.9176C10.5177 11.8369 10.1982 12.0255 10.1176 12.3389C10.0529 12.59 10.0202 12.8498 10.0202 13.1112V14.4041H4.83311C4.58787 13.6769 3.89983 13.1516 3.09092 13.1516C2.07718 13.1516 1.25249 13.9762 1.25249 14.99C1.25249 16.0037 2.07726 16.8284 3.09092 16.8284C3.89983 16.8284 4.58779 16.3031 4.83311 15.5759H10.0201V16.9091H7.47474C7.15114 16.9091 6.8888 17.1715 6.8888 17.4951C6.8888 17.8186 7.15114 18.081 7.47474 18.081H10.0201V19.4141H0.585935C0.262343 19.4141 0 19.6765 0 20C0 20.3236 0.262343 20.586 0.585935 20.586H10.0201V21.9191H7.47474C7.15114 21.9191 6.8888 22.1814 6.8888 22.505C6.8888 22.8286 7.15114 23.091 7.47474 23.091H10.0201V24.4242H8.25294C7.59458 24.4242 6.9756 24.6805 6.51013 25.146L2.65655 28.9996C2.40546 28.8745 2.1271 28.808 1.83835 28.808C1.34726 28.808 0.885621 28.9992 0.538357 29.3464C0.191249 29.6937 0 30.1554 0 30.6464C0 31.1374 0.191249 31.5991 0.538513 31.9464C0.8857 32.2937 1.34742 32.4848 1.83851 32.4848C2.3296 32.4848 2.79124 32.2936 3.1385 31.9464C3.48577 31.5991 3.67702 31.1375 3.67702 30.6464C3.67702 30.3577 3.61045 30.0793 3.48538 29.8282L7.33896 25.9746C7.5831 25.7305 7.90778 25.596 8.25317 25.596H10.0204V26.8888C10.0204 28.5931 11.407 29.9797 13.1113 29.9797H14.4041V35.1667C13.6769 35.4119 13.1516 36.1 13.1516 36.9089C13.1516 37.9226 13.9764 38.7473 14.99 38.7473C16.0037 38.7473 16.8284 37.9226 16.8284 36.9089C16.8284 36.1 16.3031 35.412 15.576 35.1667V29.9797H16.9091V32.5251C16.9091 32.8487 17.1714 33.111 17.495 33.111C17.8186 33.111 18.0809 32.8487 18.0809 32.5251V29.9797H19.414V39.414C19.414 39.7376 19.6763 40 19.9999 40C20.3235 40 20.5859 39.7376 20.5859 39.414V29.9799H21.919V32.5252C21.919 32.8488 22.1813 33.1112 22.5049 33.1112C22.8285 33.1112 23.0908 32.8488 23.0908 32.5252V29.9799H24.424V31.747C24.424 32.4053 24.6804 33.0243 25.1459 33.4898L29.0008 37.3447C28.6603 38.0322 28.7744 38.8896 29.3463 39.4615C29.7046 39.8199 30.1755 39.999 30.6463 39.999C31.1171 39.999 31.5879 39.8199 31.9463 39.4615C32.6631 38.7447 32.6631 37.5783 31.9463 36.8615ZM3.09092 15.6565C2.72335 15.6565 2.42437 15.3575 2.42437 14.99C2.42437 14.6224 2.72343 14.3234 3.09092 14.3234C3.45842 14.3234 3.75748 14.6225 3.75748 14.99C3.75756 15.3576 3.4585 15.6565 3.09092 15.6565ZM2.30976 31.1177C2.18382 31.2437 2.01648 31.313 1.83843 31.313C1.66038 31.313 1.49304 31.2437 1.3671 31.1177C1.24117 30.9918 1.17187 30.8245 1.17187 30.6464C1.17187 30.4684 1.24117 30.301 1.3671 30.1751C1.49304 30.0491 1.66038 29.9799 1.83843 29.9799C2.01648 29.9799 2.18382 30.0491 2.30976 30.1751C2.43569 30.301 2.50499 30.4684 2.50499 30.6464C2.50499 30.8245 2.43569 30.9919 2.30976 31.1177ZM15.6564 36.909C15.6564 37.2765 15.3574 37.5756 14.9899 37.5756C14.6223 37.5756 14.3233 37.2765 14.3233 36.909C14.3233 36.5415 14.6224 36.2425 14.9899 36.2425C15.3574 36.2425 15.6564 36.5415 15.6564 36.909ZM31.1177 38.6329C30.8578 38.8928 30.4349 38.8927 30.175 38.6329C29.915 38.3729 29.915 37.9501 30.175 37.6902C30.305 37.5603 30.4757 37.4953 30.6464 37.4953C30.8171 37.4953 30.9878 37.5603 31.1177 37.6902C31.3775 37.9501 31.3775 38.3729 31.1177 38.6329Z" fill="url(#paint1_linear_4_179)"/>
<path d="M26.2222 18.4346C26.2222 17.1814 25.3056 16.12 24.0508 15.775C24.0879 15.6218 24.1086 15.4643 24.1086 15.3032C24.1086 14.1168 23.0555 13.1516 21.7613 13.1516C21.0602 13.1516 20.4305 13.4351 20 13.8832C19.5695 13.4351 18.9397 13.1516 18.2387 13.1516C16.9444 13.1516 15.8914 14.1168 15.8914 15.3032C15.8914 15.4643 15.912 15.6218 15.9492 15.775C14.6944 16.1199 13.7778 17.1814 13.7778 18.4346C13.7778 19.047 13.9946 19.6248 14.3949 20.102C14.0035 20.6088 13.7778 21.224 13.7778 21.879C13.7777 22.8752 14.31 23.8055 15.1868 24.3825C15.1868 24.383 15.1868 24.3834 15.1868 24.3839C15.1868 25.743 16.3978 26.8487 17.8864 26.8487C18.7419 26.8487 19.5051 26.4831 20 25.9145C20.4949 26.4831 21.2581 26.8487 22.1136 26.8487C23.5462 26.8487 24.7211 25.8245 24.8075 24.536C25.6776 24.0312 26.2222 23.1469 26.2222 22.192C26.2222 21.4897 25.9227 20.8197 25.4073 20.3133C25.9226 19.8069 26.2222 19.1368 26.2222 18.4346ZM24.1484 20.8314C24.713 21.1294 25.0501 21.6381 25.0501 22.192C25.0501 22.6051 24.8581 22.9991 24.5339 23.2937C24.2258 22.7233 23.6814 22.2692 22.9935 22.0531C22.6849 21.9562 22.3559 22.1278 22.2589 22.4365C22.1619 22.7452 22.3336 23.0742 22.6423 23.1711C23.2396 23.3588 23.641 23.8463 23.641 24.384C23.641 25.0969 22.9557 25.6769 22.1133 25.6769C21.2709 25.6769 20.5856 25.0969 20.5856 24.384V20.6264C20.5856 19.9135 21.2709 19.3336 22.1133 19.3336C22.4369 19.3336 22.6992 19.0713 22.6992 18.7477C22.6992 18.4241 22.4369 18.1617 22.1133 18.1617C21.5466 18.1617 21.0203 18.3224 20.5856 18.5959V17.8475C20.5856 17.5239 20.3233 17.2615 19.9997 17.2615C19.6761 17.2615 19.4137 17.5239 19.4137 17.8475V21.1003C19.2166 20.9766 19.0003 20.8742 18.7664 20.8006C18.4575 20.7036 18.1288 20.8753 18.0318 21.1839C17.9348 21.4927 18.1064 21.8216 18.4151 21.9186C19.0124 22.1063 19.4137 22.5938 19.4137 23.1314V24.3839C19.4137 25.0968 18.7284 25.6768 17.8861 25.6768C17.0437 25.6768 16.3584 25.0968 16.3584 24.3839C16.3584 24.0784 16.4879 23.7813 16.7231 23.5476C16.9526 23.3195 16.9537 22.9484 16.7256 22.7189C16.4974 22.4894 16.1265 22.4883 15.897 22.7164C15.7566 22.856 15.6357 23.0085 15.5352 23.1706C15.1652 22.8206 14.9492 22.3602 14.9492 21.8788C14.9492 21.0107 15.6306 20.2481 16.6061 20.0242C16.9215 19.9519 17.1185 19.6375 17.0462 19.3221C16.9738 19.0067 16.6594 18.8097 16.3441 18.8821C15.9513 18.9721 15.5898 19.1225 15.2692 19.3199C15.0613 19.0589 14.9493 18.7531 14.9493 18.4344C14.9495 17.5531 15.785 16.8356 16.8149 16.8288C16.8202 16.8289 16.8254 16.8296 16.8306 16.8296C16.9643 16.8296 17.0988 16.7841 17.2088 16.6909C17.4334 16.5007 17.4785 16.1781 17.3277 15.9354C17.3233 15.9282 17.3192 15.9208 17.3145 15.9139C17.3121 15.9104 17.3092 15.907 17.3067 15.9035C17.2977 15.8907 17.2884 15.8782 17.2783 15.8662C17.278 15.8658 17.2777 15.8654 17.2774 15.8651C17.1797 15.7496 17.0631 15.5583 17.0631 15.3032C17.0631 14.7629 17.5904 14.3234 18.2384 14.3234C18.8865 14.3234 19.4138 14.7629 19.4138 15.3032C19.4138 15.6268 19.6762 15.8891 19.9998 15.8891C20.3234 15.8891 20.5857 15.6268 20.5857 15.3032C20.5857 14.7629 21.113 14.3234 21.7611 14.3234C22.4091 14.3234 22.9365 14.7629 22.9365 15.3032C22.9365 15.4475 22.8987 15.5707 22.8486 15.6719C22.5153 15.7034 22.193 15.7839 21.8869 15.913C21.5887 16.0387 21.449 16.3824 21.5747 16.6806C21.7004 16.9787 22.044 17.1186 22.3423 16.9928C22.5955 16.886 22.868 16.8311 23.1522 16.8289C23.1579 16.8291 23.1634 16.8296 23.169 16.8296C23.1743 16.8296 23.1794 16.8289 23.1847 16.8288C24.2146 16.8355 25.0501 17.5531 25.0501 18.4344C25.0501 18.9884 24.713 19.497 24.1484 19.795C23.9562 19.8964 23.8359 20.0959 23.8359 20.3132C23.8359 20.5306 23.9562 20.73 24.1484 20.8314Z" fill="url(#paint2_linear_4_179)"/>
</g>
<defs>
<linearGradient id="paint0_linear_4_179" x1="7.51605" y1="13.8341" x2="40" y2="13.8341" gradientUnits="userSpaceOnUse">
<stop stop-color="#7E90FE"/>
<stop offset="1" stop-color="#9873FF"/>
</linearGradient>
<linearGradient id="paint1_linear_4_179" x1="-7.73903e-08" y1="25.7333" x2="32.4839" y2="25.7333" gradientUnits="userSpaceOnUse">
<stop stop-color="#7E90FE"/>
<stop offset="1" stop-color="#9873FF"/>
</linearGradient>
<linearGradient id="paint2_linear_4_179" x1="13.7778" y1="19.8948" x2="26.2222" y2="19.8948" gradientUnits="userSpaceOnUse">
<stop stop-color="#7E90FE"/>
<stop offset="1" stop-color="#9873FF"/>
</linearGradient>
<clipPath id="clip0_4_179">
<rect width="40" height="40" fill="white"/>
</clipPath>
</defs>
</svg>
