<svg width="40" height="40" viewBox="0 0 40 40" fill="none" xmlns="http://www.w3.org/2000/svg">
<g clip-path="url(#clip0_4_110)">
<path d="M20 5.33361C20.3682 5.33361 20.6667 5.0351 20.6667 4.66691V0.666701C20.6667 0.298516 20.3682 0 20 0C19.6319 0 19.3333 0.298516 19.3333 0.666701V4.66691C19.3333 5.0351 19.6318 5.33361 20 5.33361Z" fill="url(#paint0_linear_4_110)"/>
<path d="M10.0889 3.4982L12.089 6.96505C12.271 7.28515 12.678 7.39707 12.9981 7.21506C13.3182 7.03305 13.4301 6.62603 13.2481 6.30593C13.2467 6.30335 13.2452 6.30085 13.2437 6.29826L11.2436 2.83142C11.0616 2.51132 10.6546 2.39939 10.3345 2.5814C10.0144 2.76341 9.90243 3.17043 10.0844 3.49053C10.0859 3.49312 10.0874 3.4957 10.0889 3.4982Z" fill="url(#paint1_linear_4_110)"/>
<path d="M3.49984 10.5779L6.96668 12.578C7.28678 12.76 7.6938 12.6481 7.87581 12.328C8.05607 12.0109 7.94807 11.6078 7.63338 11.4233L4.16654 9.4232C3.84644 9.24119 3.43942 9.35311 3.25741 9.67321C3.07706 9.99031 3.18507 10.3934 3.49984 10.5779Z" fill="url(#paint2_linear_4_110)"/>
<path d="M5.99931 19.3344C5.99931 18.9662 5.70079 18.6677 5.3326 18.6677H1.3324C0.964211 18.6677 0.665695 18.9662 0.665695 19.3344C0.665695 19.7026 0.964211 20.0011 1.3324 20.0011H5.3326C5.70079 20.0011 5.99931 19.7026 5.99931 19.3344Z" fill="url(#paint3_linear_4_110)"/>
<path d="M6.97177 26.0862C6.96918 26.0877 6.9666 26.0892 6.96402 26.0907L3.49717 28.0908C3.17707 28.2727 3.06506 28.6798 3.24699 28.9999C3.42892 29.32 3.83594 29.432 4.15604 29.25C4.15862 29.2485 4.1612 29.247 4.16379 29.2455L7.63064 27.2454C7.95074 27.0635 8.06274 26.6565 7.88082 26.3364C7.69889 26.0163 7.29187 25.9043 6.97177 26.0862Z" fill="url(#paint4_linear_4_110)"/>
<path d="M36.5002 28.0908L33.0334 26.0907C32.7158 25.9045 32.3073 26.011 32.121 26.3286C31.9347 26.6462 32.0412 27.0547 32.3588 27.2409C32.3614 27.2424 32.364 27.2439 32.3666 27.2454L35.8334 29.2456C36.1535 29.4275 36.5606 29.3155 36.7425 28.9954C36.9227 28.6784 36.8148 28.2753 36.5002 28.0908Z" fill="url(#paint5_linear_4_110)"/>
<path d="M38.6677 18.6677H34.6675C34.2993 18.6677 34.0008 18.9662 34.0008 19.3344C34.0008 19.7026 34.2993 20.0011 34.6675 20.0011H38.6677C39.0359 20.0011 39.3344 19.7026 39.3344 19.3344C39.3344 18.9662 39.0359 18.6677 38.6677 18.6677Z" fill="url(#paint6_linear_4_110)"/>
<path d="M32.7033 12.6673C32.8204 12.6673 32.9354 12.6365 33.0367 12.578L36.5035 10.5779C36.8212 10.3917 36.9277 9.98318 36.7416 9.66558C36.557 9.3509 36.1539 9.24289 35.8368 9.42315L32.37 11.4233C32.0511 11.6074 31.9419 12.0151 32.126 12.334C32.2451 12.5402 32.4652 12.6673 32.7033 12.6673Z" fill="url(#paint7_linear_4_110)"/>
<path d="M27.0004 7.20908C27.3192 7.39317 27.727 7.28391 27.9111 6.96506L29.9112 3.49822C30.0975 3.18062 29.991 2.7721 29.6734 2.58584C29.3558 2.39958 28.9472 2.50608 28.761 2.82368C28.7595 2.82627 28.758 2.82885 28.7565 2.83143L26.7564 6.29828C26.5722 6.61721 26.6815 7.02498 27.0004 7.20908Z" fill="url(#paint8_linear_4_110)"/>
<path d="M20 9.33374C14.4795 9.33999 10.0058 13.8137 9.99951 19.3343C9.99951 19.7024 10.298 20.001 10.6662 20.001C11.0344 20.001 11.3329 19.7024 11.3329 19.3343C11.3384 14.5498 15.2156 10.6726 20 10.6671C20.3682 10.6671 20.6667 10.3686 20.6667 10.0004C20.6667 9.63226 20.3682 9.33374 20 9.33374Z" fill="url(#paint9_linear_4_110)"/>
<path d="M32.2007 22.7304V22.7271C32.222 22.6604 32.2413 22.5884 32.258 22.5231C32.282 22.4311 32.302 22.3384 32.3247 22.2458C32.3473 22.1531 32.3687 22.0604 32.3813 21.9864C33.8595 15.1484 29.5145 8.40678 22.6765 6.92854C15.8385 5.4503 9.09689 9.79536 7.61864 16.6334C7.4268 17.5208 7.33096 18.4263 7.33271 19.3343C7.33271 19.631 7.34538 19.9256 7.36605 20.2183C7.37671 20.3803 7.39271 20.545 7.41272 20.7177C7.45005 21.0577 7.49805 21.395 7.56272 21.7291C7.56806 21.7564 7.57006 21.7844 7.57739 21.8117C7.60673 21.9644 7.64406 22.1124 7.6794 22.2604C7.70006 22.3464 7.72006 22.4324 7.74207 22.5178C7.75207 22.5538 7.7574 22.5844 7.76873 22.6258C7.7954 22.7251 7.82674 22.8191 7.85607 22.9165C7.88741 23.0245 7.91741 23.1325 7.95208 23.2391L7.95608 23.2518C8.01608 23.4458 8.08408 23.6345 8.16609 23.8445C8.18142 23.8852 8.19742 23.9252 8.21342 23.9652C8.22809 24.0148 8.24734 24.063 8.27076 24.1092L8.27409 24.1172C8.31876 24.2359 8.37077 24.3539 8.42277 24.4645L8.43143 24.4812C8.46477 24.5565 8.4981 24.6312 8.53411 24.7065C8.55077 24.7439 8.56678 24.7852 8.58344 24.8192C8.76204 25.1956 8.96105 25.5619 9.17947 25.9166L9.24148 26.0153C9.28148 26.082 9.32215 26.1486 9.36282 26.2053L9.44482 26.3273C9.48482 26.386 9.52616 26.4453 9.56683 26.504C9.59616 26.5466 9.6235 26.5893 9.6535 26.6313C9.66817 26.6553 9.68217 26.6787 9.70083 26.704C9.71483 26.7227 9.73017 26.7413 9.74484 26.76C9.77084 26.796 9.79751 26.8267 9.82351 26.862C9.93285 27.01 10.0435 27.1567 10.1569 27.3L10.1649 27.3107C10.1862 27.336 10.2082 27.36 10.2315 27.3854C10.3649 27.5467 10.4982 27.7067 10.6416 27.862H10.6449C10.7636 27.9954 10.8896 28.1207 11.0149 28.2474C11.0549 28.2867 11.0916 28.3287 11.1316 28.3681C11.1489 28.3847 11.1642 28.4034 11.1816 28.4201C11.3616 28.5934 11.5483 28.7594 11.7329 28.9234C12.083 29.2303 12.4521 29.5144 12.8383 29.7741C12.9075 29.8522 12.9941 29.913 13.091 29.9515L13.3517 31.8929C13.3423 31.9285 13.336 31.9649 13.333 32.0016C13.3349 32.1041 13.3606 32.2049 13.4084 32.2956L13.8991 35.9438C13.9071 36.0066 13.9244 36.068 13.9504 36.1258C14.0915 36.4447 14.2615 36.75 14.4584 37.0379V37.0425L14.4637 37.0485C16.5125 40.1035 20.65 40.9193 23.705 38.8705C24.4251 38.3876 25.0441 37.7686 25.527 37.0485L25.5323 37.0425L25.5357 37.0379C25.7326 36.75 25.9026 36.4447 26.0437 36.1258C26.0697 36.068 26.0869 36.0066 26.095 35.9438L26.9011 29.9508C26.9477 29.9352 26.9924 29.9144 27.0344 29.8888C29.55 28.2031 31.379 25.6725 32.1907 22.7551C32.1967 22.7471 32.2007 22.7391 32.2007 22.7304ZM16.4785 37.3352H23.5216C21.5104 39.1131 18.4895 39.1131 16.4785 37.3352ZM24.7923 35.6685C24.7396 35.7818 24.6816 35.8931 24.6196 36.0018H15.3804C15.3184 35.8938 15.2604 35.7825 15.2077 35.6685L14.8044 32.6683H25.1956L24.7923 35.6685ZM25.3736 31.3429C25.3596 31.3422 25.3476 31.3349 25.3336 31.3349H14.6251L14.4457 30.0015H25.5543L25.3736 31.3429ZM18.6666 28.6681V22.4251L19.606 23.1018C19.8388 23.2695 20.1526 23.2695 20.3854 23.1018L21.3334 22.4191V28.6681H18.6666ZM31.3086 20.0676C31.296 20.273 31.2773 20.4717 31.2526 20.6717V20.687C31.2445 20.7234 31.2389 20.7604 31.236 20.7977V20.811C31.232 20.831 31.2293 20.851 31.2266 20.8723C31.224 20.8937 31.2226 20.9057 31.2206 20.9237C31.2206 20.943 31.2153 20.9617 31.2126 20.981C31.198 21.0844 31.1826 21.187 31.1646 21.2897C31.156 21.3364 31.1493 21.3797 31.138 21.4324C31.1273 21.503 31.1106 21.5791 31.0859 21.6924V21.7044C31.0693 21.7844 31.0519 21.8644 31.0333 21.9437C31.0266 21.9704 31.0219 21.9931 31.0139 22.0231C30.9915 22.1327 30.9634 22.241 30.9299 22.3478C30.9173 22.3951 30.9033 22.4424 30.8899 22.4898C30.8573 22.6104 30.8233 22.7284 30.7779 22.8571C30.7233 23.0278 30.6693 23.1985 30.6026 23.3618L30.5766 23.4285C30.5454 23.5152 30.5098 23.6002 30.4699 23.6832C30.4553 23.7119 30.4431 23.7418 30.4332 23.7725L30.4199 23.8025C30.3606 23.9518 30.2946 24.0945 30.2092 24.2692C30.1612 24.3772 30.1079 24.4792 30.0546 24.5812L29.9739 24.7406C29.1184 26.3172 27.8999 27.6676 26.419 28.6801C26.3844 28.6731 26.3491 28.6691 26.3137 28.6681H22.6668V23.0638L22.7202 23.1018C22.9526 23.2688 23.2658 23.2688 23.4982 23.1018L25.0556 21.9831C25.3606 21.7766 25.4405 21.3622 25.2341 21.0573C25.0276 20.7523 24.6132 20.6724 24.3083 20.8788C24.2981 20.8858 24.2881 20.8929 24.2783 20.9004L23.1089 21.7397L21.9401 20.9004C21.7075 20.733 21.394 20.733 21.1614 20.9004L19.996 21.7391L18.8306 20.9004C18.5979 20.7327 18.284 20.7327 18.0513 20.9004L16.8865 21.7391L15.7231 20.9004C15.4244 20.6849 15.0075 20.7526 14.7921 21.0514C14.5767 21.3501 14.6443 21.767 14.9431 21.9824L16.4965 23.1018C16.7293 23.2695 17.0431 23.2695 17.2759 23.1018L17.3332 23.0605V28.6681H13.6864C13.658 28.6684 13.6298 28.6704 13.6017 28.6741C12.8818 28.1812 12.2208 27.6075 11.6316 26.964C11.5043 26.8253 11.3809 26.6787 11.2569 26.5286C11.2342 26.5013 11.2096 26.4746 11.1869 26.4466C11.0742 26.3133 10.9709 26.172 10.8682 26.0293C10.8289 25.9759 10.7869 25.9246 10.7489 25.8706V25.8666C10.7436 25.8586 10.7389 25.8513 10.7336 25.8446L10.7116 25.8119C10.6942 25.7893 10.6802 25.7659 10.6636 25.7453C10.5082 25.5199 10.3635 25.2879 10.2249 25.0526C10.0915 24.8286 9.97085 24.6039 9.85884 24.3752C9.81417 24.2865 9.76817 24.1985 9.7255 24.1085C9.71283 24.0772 9.6975 24.0418 9.6895 24.0225L9.65683 23.9558L9.64883 23.9398V23.9365C9.48607 23.5736 9.34298 23.2021 9.22014 22.8238C9.20814 22.7878 9.19681 22.7498 9.18481 22.7131C9.12414 22.5191 9.06747 22.3231 9.0168 22.1244C9.0168 22.1137 9.0108 22.1037 9.0088 22.0931C9.0048 22.0664 8.99946 22.0399 8.9928 22.0137C8.9808 21.9684 8.97213 21.9211 8.96146 21.8757C8.92946 21.7371 8.89479 21.5991 8.86946 21.459C8.86946 21.4437 8.86612 21.4284 8.86346 21.413C8.82812 21.231 8.79679 21.0424 8.77412 20.8537C8.77362 20.8123 8.76829 20.7711 8.75812 20.731C8.75812 20.717 8.75345 20.6943 8.74945 20.671C8.72478 20.471 8.70678 20.2763 8.69345 20.061C8.67211 19.819 8.66611 19.5763 8.66611 19.3343C8.67311 13.0776 13.7434 8.00735 20 8.00035C26.2567 8.00735 31.327 13.0776 31.334 19.3343C31.334 19.5763 31.328 19.819 31.3086 20.0676Z" fill="url(#paint10_linear_4_110)"/>
</g>
<defs>
<linearGradient id="paint0_linear_4_110" x1="19.3333" y1="2.62578" x2="20.6667" y2="2.62578" gradientUnits="userSpaceOnUse">
<stop stop-color="#7E90FE"/>
<stop offset="1" stop-color="#9873FF"/>
</linearGradient>
<linearGradient id="paint1_linear_4_110" x1="9.99718" y1="4.86125" x2="13.3354" y2="4.86125" gradientUnits="userSpaceOnUse">
<stop stop-color="#7E90FE"/>
<stop offset="1" stop-color="#9873FF"/>
</linearGradient>
<linearGradient id="paint2_linear_4_110" x1="3.17014" y1="10.975" x2="7.96303" y2="10.975" gradientUnits="userSpaceOnUse">
<stop stop-color="#7E90FE"/>
<stop offset="1" stop-color="#9873FF"/>
</linearGradient>
<linearGradient id="paint3_linear_4_110" x1="0.665695" y1="19.3242" x2="5.99931" y2="19.3242" gradientUnits="userSpaceOnUse">
<stop stop-color="#7E90FE"/>
<stop offset="1" stop-color="#9873FF"/>
</linearGradient>
<linearGradient id="paint4_linear_4_110" x1="3.15981" y1="27.6424" x2="7.968" y2="27.6424" gradientUnits="userSpaceOnUse">
<stop stop-color="#7E90FE"/>
<stop offset="1" stop-color="#9873FF"/>
</linearGradient>
<linearGradient id="paint5_linear_4_110" x1="32.0293" y1="27.6402" x2="36.8297" y2="27.6402" gradientUnits="userSpaceOnUse">
<stop stop-color="#7E90FE"/>
<stop offset="1" stop-color="#9873FF"/>
</linearGradient>
<linearGradient id="paint6_linear_4_110" x1="34.0008" y1="19.3242" x2="39.3344" y2="19.3242" gradientUnits="userSpaceOnUse">
<stop stop-color="#7E90FE"/>
<stop offset="1" stop-color="#9873FF"/>
</linearGradient>
<linearGradient id="paint7_linear_4_110" x1="32.0366" y1="10.976" x2="36.8332" y2="10.976" gradientUnits="userSpaceOnUse">
<stop stop-color="#7E90FE"/>
<stop offset="1" stop-color="#9873FF"/>
</linearGradient>
<linearGradient id="paint8_linear_4_110" x1="26.6669" y1="4.85936" x2="30.0029" y2="4.85936" gradientUnits="userSpaceOnUse">
<stop stop-color="#7E90FE"/>
<stop offset="1" stop-color="#9873FF"/>
</linearGradient>
<linearGradient id="paint9_linear_4_110" x1="9.99951" y1="14.5853" x2="20.6667" y2="14.5853" gradientUnits="userSpaceOnUse">
<stop stop-color="#7E90FE"/>
<stop offset="1" stop-color="#9873FF"/>
</linearGradient>
<linearGradient id="paint10_linear_4_110" x1="7.33269" y1="23.0633" x2="32.67" y2="23.0633" gradientUnits="userSpaceOnUse">
<stop stop-color="#7E90FE"/>
<stop offset="1" stop-color="#9873FF"/>
</linearGradient>
<clipPath id="clip0_4_110">
<rect width="40" height="40" fill="white"/>
</clipPath>
</defs>
</svg>
