<svg width="40" height="40" viewBox="0 0 40 40" fill="none" xmlns="http://www.w3.org/2000/svg">
<g clip-path="url(#clip0_4_171)">
<path d="M34.9863 24.7473C35.4905 23.1913 35.7465 21.5683 35.7465 19.9146C35.7465 18.2669 35.4923 16.6498 34.9912 15.0986C36.0932 14.6848 37.0951 14.0222 37.927 13.1412C39.3647 11.6193 40.1233 9.62831 40.0635 7.53572C39.9396 3.21534 36.3245 -0.198059 32.0035 -0.0747681C29.9106 -0.0149535 27.9667 0.856325 26.529 2.37854C25.803 3.14728 25.2506 4.03565 24.8889 4.99634C23.3374 4.49555 21.7203 4.24134 20.072 4.24134C18.4229 4.24134 16.8045 4.49616 15.2521 4.99757C14.1324 2.03461 11.2668 -0.078125 7.91658 -0.078125C3.59437 -0.078125 0.078125 3.43812 0.078125 7.76002C0.078125 11.1099 2.19116 13.9752 5.15412 15.0946C4.65241 16.6474 4.39789 18.2657 4.39789 19.9146C4.39789 21.5683 4.65394 23.1913 5.15809 24.7473C2.193 25.8658 0.078125 28.7323 0.078125 32.0838C0.078125 33.2636 0.333863 34.3979 0.838319 35.4551C0.977784 35.7471 1.32752 35.871 1.61957 35.7316C1.91132 35.5921 2.03522 35.2424 1.89606 34.9503C1.46729 34.0519 1.25 33.0875 1.25 32.0838C1.25 28.4082 4.24073 25.4178 7.91658 25.4178C11.5927 25.4178 14.5835 28.4082 14.5835 32.0838C14.5835 35.7596 11.5927 38.7501 7.91658 38.7501C6.23994 38.7501 4.63746 38.1254 3.40455 36.991C3.1662 36.7719 2.79541 36.7875 2.5766 37.0255C2.35749 37.2638 2.37274 37.6343 2.61109 37.8534C4.06098 39.1874 5.94514 39.9219 7.91658 39.9219C11.2717 39.9219 14.1409 37.8028 15.257 34.8331C16.8076 35.3336 18.4244 35.5878 20.072 35.5878C21.72 35.5878 23.3371 35.3336 24.8877 34.8334C26.0038 37.8031 28.873 39.9219 32.2281 39.9219C36.5503 39.9219 40.0666 36.4057 40.0666 32.0838C40.0666 28.7323 37.9517 25.8655 34.9863 24.7473ZM27.381 3.18299C28.6036 1.88843 30.2573 1.14746 32.0374 1.0965C32.1021 1.09467 32.1662 1.09375 32.2309 1.09375C35.8191 1.09375 38.7888 3.95966 38.892 7.56898C38.9429 9.34877 38.2978 11.0419 37.0752 12.3367C35.8527 13.6313 34.199 14.3723 32.4189 14.4232C32.3542 14.4251 32.2898 14.426 32.2254 14.426C28.6371 14.426 25.6675 11.5601 25.5643 7.95076C25.513 6.17097 26.1585 4.47755 27.381 3.18299ZM24.5591 33.7079C23.1153 34.1773 21.6086 34.4159 20.072 34.4159C18.5361 34.4159 17.0294 34.1773 15.5857 33.7079C15.6964 33.1836 15.7553 32.6404 15.7553 32.0838C15.7553 27.7619 12.2388 24.2459 7.91658 24.2459C7.35658 24.2459 6.81031 24.3055 6.28327 24.4175C5.80994 22.9685 5.56977 21.4563 5.56977 19.9146C5.56977 18.3777 5.80872 16.8704 6.279 15.4251C6.80726 15.538 7.35505 15.5979 7.91658 15.5979C9.25935 15.5979 10.5841 15.2524 11.7484 14.599C12.0304 14.4406 12.1308 14.0836 11.9724 13.8013C11.814 13.519 11.4569 13.4189 11.1746 13.5773C10.1853 14.1324 9.05855 14.426 7.91658 14.426C4.24042 14.426 1.25 11.4356 1.25 7.75972C1.25 4.08417 4.24073 1.09375 7.91658 1.09375C11.5927 1.09375 14.5835 4.08417 14.5835 7.76002C14.5835 9.2978 14.0473 10.798 13.0737 11.9849C12.8684 12.2348 12.905 12.6041 13.1552 12.8095C13.4052 13.0145 13.7744 12.9782 13.9798 12.728C15.1245 11.3324 15.7553 9.56788 15.7553 7.75972C15.7553 7.1985 15.6952 6.6507 15.5826 6.12244C17.0276 5.65217 18.5352 5.41322 20.072 5.41322C21.6086 5.41322 23.1156 5.65186 24.56 6.12153C24.4321 6.72639 24.3747 7.35047 24.3927 7.98432C24.5145 12.2284 28.0057 15.5982 32.2251 15.5979C32.3005 15.5979 32.3764 15.5969 32.4524 15.5945C32.9328 15.5808 33.4052 15.5237 33.8657 15.4264C34.3357 16.8711 34.5746 18.3783 34.5746 19.9146C34.5746 21.4563 34.3342 22.9685 33.8611 24.4175C33.3341 24.3051 32.7878 24.2459 32.2281 24.2459C27.9059 24.2459 24.3897 27.7619 24.3897 32.0838C24.3897 32.6407 24.4483 33.1839 24.5591 33.7079ZM32.2281 38.7501C28.552 38.7501 25.5616 35.7596 25.5616 32.0841C25.5616 28.4082 28.552 25.4178 32.2281 25.4178C35.9043 25.4178 38.8947 28.4082 38.8947 32.0841C38.8947 35.7596 35.9043 38.7501 32.2281 38.7501Z" fill="url(#paint0_linear_4_171)"/>
<path d="M11.9064 4.30104C11.7044 4.16371 11.4386 4.16585 11.239 4.30684C11.0394 4.44752 10.8258 4.56502 10.6012 4.6581C9.79612 4.02821 8.62943 4.03554 7.83017 4.73042C7.41483 5.09175 7.15512 5.59132 7.0947 6.13088C6.23502 6.00301 5.45804 5.52968 4.94839 4.80397C4.82693 4.63124 4.62186 4.53755 4.4122 4.55769C4.20193 4.57814 4.01913 4.70998 3.93338 4.90285C3.91659 4.94069 3.52231 5.84157 3.57266 6.94417C3.61111 7.78798 3.91293 8.87563 5.0137 9.71548C4.61728 9.84335 4.19858 9.90255 3.7814 9.88577C3.50979 9.87508 3.26718 10.0518 3.19394 10.313C3.12069 10.5742 3.23636 10.8516 3.47348 10.9835C4.39267 11.494 5.37747 11.7498 6.33969 11.7498C7.26407 11.7498 8.16739 11.5136 8.97123 11.0409C9.97922 10.4479 10.7116 9.54 11.1093 8.43129C11.1218 8.40322 11.1322 8.37392 11.1404 8.34371C11.3449 7.7416 11.452 7.08211 11.452 6.38265C11.452 6.35213 11.4511 6.32131 11.4499 6.29079C11.7843 5.8965 12.023 5.42928 12.1463 4.92421C12.2037 4.68678 12.1084 4.43837 11.9064 4.30104ZM10.2621 6.19985C10.2737 6.26088 10.2798 6.32405 10.2798 6.38448C10.2798 6.95882 10.1944 7.49074 10.0317 7.97139C10.0229 7.99337 10.0155 8.01626 10.0094 8.03975C9.70517 8.8912 9.15128 9.5751 8.37705 10.0307C7.66843 10.4479 6.85513 10.6255 6.02628 10.5654C6.2161 10.4714 6.39951 10.3646 6.57498 10.2456C6.75076 10.1259 6.84842 9.92056 6.8295 9.70846C6.81058 9.49636 6.67813 9.31142 6.48374 9.22506C5.38968 8.73891 4.80466 7.9656 4.74515 6.92708C4.73294 6.71437 4.74362 6.51021 4.76651 6.32314C5.57248 6.99666 6.60489 7.36409 7.68247 7.33632C8.00016 7.32808 8.25345 7.06838 8.25345 6.75069V6.39516C8.25345 6.39272 8.25345 6.38997 8.25345 6.38722C8.24948 6.0909 8.37522 5.80922 8.59922 5.61482C9.01792 5.25075 9.65452 5.295 10.0186 5.7137C10.0918 5.79762 10.1852 5.85713 10.2871 5.88857C10.2514 5.98683 10.242 6.09395 10.2621 6.19985Z" fill="url(#paint1_linear_4_171)"/>
<path d="M30.3 8.22199H31.1307V11.716C31.1307 12.0394 31.3931 12.3019 31.7166 12.3019C32.0404 12.3019 32.3026 12.0394 32.3026 11.716V8.22199H33.2074C33.5309 8.22199 33.7933 7.95954 33.7933 7.63605C33.7933 7.31257 33.5309 7.05011 33.2074 7.05011H32.3026V5.41071C32.3026 4.84796 32.7606 4.38989 33.3237 4.38989H34.0823C34.4058 4.38989 34.6683 4.12744 34.6683 3.80396C34.6683 3.48016 34.4058 3.21802 34.0823 3.21802H33.3237C32.1146 3.21802 31.1307 4.2016 31.1307 5.41071V7.05011H30.3C29.9765 7.05011 29.7141 7.31257 29.7141 7.63605C29.7141 7.95954 29.9765 8.22199 30.3 8.22199Z" fill="url(#paint2_linear_4_171)"/>
<path d="M6.58722 35.1143C6.72669 35.1143 6.86615 35.0783 6.99036 35.0066L10.9787 32.7028C11.2274 32.5593 11.3818 32.2917 11.3818 32.0045C11.3818 31.7177 11.2274 31.45 10.9787 31.3066L6.99036 29.0028C6.74194 28.8591 6.43311 28.8591 6.18439 29.0028C5.93567 29.1463 5.78094 29.4139 5.78094 29.7011V34.3083C5.78094 34.5955 5.93567 34.8631 6.18439 35.0066C6.30859 35.0786 6.44775 35.1143 6.58722 35.1143ZM6.95282 30.3346L9.84467 32.0048L6.95282 33.6751V30.3346Z" fill="url(#paint3_linear_4_171)"/>
<path d="M34.7742 27.9341H29.682C28.7976 27.9341 28.078 28.6537 28.078 29.5384V34.6296C28.078 35.5144 28.7976 36.234 29.682 36.234H34.7742C35.6586 36.234 36.3782 35.5144 36.3782 34.6296V29.5384C36.3782 28.6537 35.6586 27.9341 34.7742 27.9341ZM35.2063 34.6296C35.2063 34.8683 35.0125 35.0621 34.7742 35.0621H29.682C29.4437 35.0621 29.2499 34.8683 29.2499 34.6296V29.5384C29.2499 29.3001 29.4437 29.106 29.682 29.106H34.7742C35.0125 29.106 35.2063 29.3001 35.2063 29.5384V34.6296Z" fill="url(#paint4_linear_4_171)"/>
<path d="M32.2281 30.3127C31.2515 30.3127 30.4568 31.1074 30.4568 32.084C30.4568 33.0606 31.2515 33.8549 32.2281 33.8549C33.2047 33.8549 33.9993 33.0606 33.9993 32.084C33.9993 31.1074 33.2047 30.3127 32.2281 30.3127ZM32.2281 32.683C31.8976 32.683 31.6287 32.4142 31.6287 32.084C31.6287 31.7535 31.8976 31.4846 32.2281 31.4846C32.5586 31.4846 32.8275 31.7535 32.8275 32.084C32.8275 32.4142 32.5586 32.683 32.2281 32.683Z" fill="url(#paint5_linear_4_171)"/>
<path d="M24.3128 13.8354C23.989 13.8354 23.7268 14.0979 23.7268 14.4214V14.6841C22.901 15.1709 22.0328 15.5911 21.1401 15.9351C20.4254 16.2103 19.6872 16.4392 18.9404 16.6184C18.8257 16.5302 18.6829 16.4767 18.5272 16.4767H15.8444C15.1962 16.4767 14.6692 17.0041 14.6692 17.652V20.7291C14.6692 21.3773 15.1962 21.9043 15.8444 21.9043H16.3806L16.5839 25.8112C16.6 26.124 16.8588 26.3666 17.1686 26.3666C17.1787 26.3666 17.189 26.3663 17.1994 26.3657C17.5226 26.3489 17.771 26.0733 17.7542 25.7501L17.554 21.9043H18.5272C18.6826 21.9043 18.8257 21.8512 18.9401 21.763C19.4156 21.8778 19.8886 22.0126 20.351 22.1661C20.6583 22.2678 20.9897 22.1015 21.0916 21.7944C21.1936 21.4871 21.0269 21.1554 20.7199 21.0538C20.2234 20.889 19.7156 20.744 19.2047 20.621V17.7606C20.0049 17.569 20.7956 17.3233 21.5613 17.0285C22.3016 16.7432 23.0267 16.409 23.7265 16.0306V22.352C23.4689 22.2128 23.2086 22.0801 22.9465 21.9541C22.6547 21.8137 22.3047 21.9364 22.1646 22.2281C22.0242 22.5198 22.1469 22.8699 22.4387 23.0103C22.8751 23.2202 23.3066 23.4516 23.7265 23.6981V23.9597C23.7265 24.2835 23.989 24.5456 24.3125 24.5456C24.6359 24.5456 24.8984 24.2835 24.8984 23.9597V14.4214C24.8987 14.0979 24.6362 13.8354 24.3128 13.8354ZM18.0331 20.7321L15.8411 20.7291L15.8444 17.6486H18.0331V20.7321Z" fill="url(#paint6_linear_4_171)"/>
</g>
<defs>
<linearGradient id="paint0_linear_4_171" x1="0.0781249" y1="19.6142" x2="40.0668" y2="19.6142" gradientUnits="userSpaceOnUse">
<stop stop-color="#7E90FE"/>
<stop offset="1" stop-color="#9873FF"/>
</linearGradient>
<linearGradient id="paint1_linear_4_171" x1="3.17212" y1="7.9153" x2="12.1628" y2="7.9153" gradientUnits="userSpaceOnUse">
<stop stop-color="#7E90FE"/>
<stop offset="1" stop-color="#9873FF"/>
</linearGradient>
<linearGradient id="paint2_linear_4_171" x1="29.7141" y1="7.69008" x2="34.6683" y2="7.69008" gradientUnits="userSpaceOnUse">
<stop stop-color="#7E90FE"/>
<stop offset="1" stop-color="#9873FF"/>
</linearGradient>
<linearGradient id="paint3_linear_4_171" x1="5.78094" y1="31.9568" x2="11.3818" y2="31.9568" gradientUnits="userSpaceOnUse">
<stop stop-color="#7E90FE"/>
<stop offset="1" stop-color="#9873FF"/>
</linearGradient>
<linearGradient id="paint4_linear_4_171" x1="28.078" y1="32.0202" x2="36.3782" y2="32.0202" gradientUnits="userSpaceOnUse">
<stop stop-color="#7E90FE"/>
<stop offset="1" stop-color="#9873FF"/>
</linearGradient>
<linearGradient id="paint5_linear_4_171" x1="30.4568" y1="32.0566" x2="33.9993" y2="32.0566" gradientUnits="userSpaceOnUse">
<stop stop-color="#7E90FE"/>
<stop offset="1" stop-color="#9873FF"/>
</linearGradient>
<linearGradient id="paint6_linear_4_171" x1="14.6692" y1="20.0046" x2="24.8984" y2="20.0046" gradientUnits="userSpaceOnUse">
<stop stop-color="#7E90FE"/>
<stop offset="1" stop-color="#9873FF"/>
</linearGradient>
<clipPath id="clip0_4_171">
<rect width="40" height="40" fill="white"/>
</clipPath>
</defs>
</svg>
