<?xml version="1.0" encoding="UTF-8"?><svg xmlns="http://www.w3.org/2000/svg" viewBox="0 0 300 300"><defs><style>.c{fill:#e0e0e0;}.d{fill:#9e9e9e;}</style></defs><g id="a"/><g id="b"><g><path class="c" d="M299,150c0,41.69-17.12,79.38-44.72,106.42-.17,.17-.35,.34-.52,.51-2.26,2.2-4.6,4.32-7,6.38-4.74,4.06-9.73,7.81-14.95,11.25-23.48,15.46-51.59,24.45-81.81,24.45s-58.33-8.99-81.81-24.45c-5.22-3.44-10.22-7.19-14.95-11.25-2.4-2.05-4.74-4.18-7-6.38-.18-.17-.35-.34-.52-.51C18.12,229.38,1,191.69,1,150,1,67.71,67.71,1,150,1s149,66.71,149,149Z"/><path class="d" d="M253.76,256.93c-2.26,2.2-4.6,4.32-7,6.38-4.74,4.06-9.73,7.81-14.95,11.25-23.48,15.46-51.59,24.45-81.81,24.45s-58.33-8.99-81.81-24.45c-5.22-3.44-10.22-7.19-14.95-11.25-2.4-2.05-4.74-4.18-7-6.38,5.62-17.4,19.35-31.51,37.46-37.22l44.1-13.93v-7.27c-5.53-3.28-10.47-7.04-14.54-9.79-7.58-5.11-12.68-13.12-14.18-22.14l-2.35-14.07c-7.37,0-13.32-5.95-13.32-13.32,0-5.48,3.29-10.17,8-12.22-4.12-9.66-7.14-19.89-8.96-30.38-1.15-6.65-1.8-13.66,.15-20.07,1.95-6.41,7.11-12.04,13.21-12.15l.8,.05c3.84-6.01,9.86-9.96,16.16-12.25,6.31-2.29,12.96-3.07,19.56-3.83,2.58-.3,5.17-.6,7.77-.86,11.98-1.15,25.03-1.43,37.28,1.98,12.25,3.41,24.09,11.07,30.33,23.26,4.95,9.68,5.96,21.35,4.71,32.4-.83,7.33-2.58,14.47-4.64,21.51,5.14,1.84,8.81,6.75,8.81,12.54,0,7.37-5.95,13.32-13.32,13.32l-2.35,14.07c-1.51,9.01-6.6,17.03-14.18,22.14-4.08,2.75-9.01,6.51-14.54,9.79v7.27l44.1,13.93c18.12,5.72,31.85,19.82,37.47,37.22Z"/></g></g></svg>