<?xml version="1.0" encoding="UTF-8"?><svg xmlns="http://www.w3.org/2000/svg" viewBox="0 0 300 300"><defs><style>.c{fill:#e0e0e0;}.d{fill:#9e9e9e;}</style></defs><g id="a"/><g id="b"><g><path class="c" d="M299,150c0,41.69-17.12,79.38-44.72,106.42-2.43,2.38-4.94,4.67-7.52,6.88-1.03,.88-2.07,1.75-3.12,2.6-.11,.09-.22,.18-.33,.26-3.69,2.98-7.53,5.78-11.5,8.39-23.48,15.46-51.59,24.45-81.81,24.45s-58.33-8.99-81.81-24.45c-3.97-2.61-7.81-5.41-11.5-8.39-.11-.09-.22-.17-.33-.26-1.06-.85-2.1-1.72-3.12-2.6-2.59-2.21-5.1-4.51-7.52-6.88C18.12,229.38,1,191.69,1,150,1,67.71,67.71,1,150,1s149,66.71,149,149Z"/><path class="d" d="M243.31,266.16c-3.69,2.98-7.53,5.78-11.5,8.39-23.48,15.46-51.59,24.45-81.81,24.45s-58.33-8.99-81.81-24.45c-3.97-2.61-7.81-5.41-11.5-8.39,2.29-21.64,16.59-40.39,37.29-48.15l33.73-12.65v-12.38c-2.52-1.59-4.79-3.32-6.86-5.16-28.08,4.14-44.07-10.79-44.07-10.79,0,0,10.78-12.87,10.79-47.41v-22.36c0-33.84,28.39-62.42,62.43-62.42s62.43,28.58,62.43,62.42v22.36c.01,34.54,10.79,47.41,10.79,47.41,0,0-16.09,15.01-44.17,10.87-2.04,1.8-4.28,3.51-6.75,5.08v12.39l33.73,12.65c20.69,7.76,35,26.52,37.28,48.15Z"/></g></g></svg>